<?xml version="1.0" standalone="no"?>
<!DOCTYPE svg PUBLIC "-//W3C//DTD SVG 20010904//EN""http://www.w3.org/TR/2001/REC-SVG-20010904/DTD/svg10.dtd">
<svg version="1.0" xmlns="http://www.w3.org/2000/svg"
 width="840.000000pt" height="804.000000pt" viewBox="0 0 900.000000 804.000000"
 preserveAspectRatio="xMidYMid meet">

<g transform="translate(0.000000,804.000000) scale(0.100000,-0.100000)"
fill="#ffffff" stroke="none">
<path d="M7157 7619 c-83 -20 -164 -83 -202 -159 -13 -25 -55 -151 -94 -280
-39 -129 -113 -372 -164 -540 l-92 -305 -3080 -5 -3080 -5 -57 -28 c-67 -33
-111 -80 -147 -157 -51 -109 -71 -23 412 -1714 241 -841 444 -1545 453 -1564
26 -64 81 -119 152 -154 l67 -33 2082 -3 c1181 -1 2083 -6 2083 -11 0 -5 -18
-67 -40 -137 -21 -71 -68 -225 -104 -343 -36 -117 -67 -215 -70 -218 -2 -2
-31 1 -65 8 -96 18 -278 7 -384 -25 l-87 -26 -1188 0 -1187 0 -80 26 c-109 36
-296 45 -411 19 -482 -106 -759 -602 -595 -1066 69 -195 219 -363 406 -454
409 -199 895 -27 1089 386 52 109 67 178 73 327 l6 132 702 0 702 0 6 -137 c5
-150 23 -225 79 -338 190 -378 622 -548 1017 -399 189 71 366 238 447 420 86
196 95 428 22 621 -13 36 -18 66 -14 86 6 28 92 316 192 642 86 281 318 1045
329 1085 7 25 36 122 65 215 29 94 74 242 100 330 26 88 71 234 98 325 108
353 186 612 232 765 71 236 402 1328 475 1565 34 113 84 278 111 368 l48 162
237 0 c259 0 287 5 361 59 196 144 163 441 -60 544 -45 21 -61 22 -427 24
-209 1 -397 -3 -418 -8z m-751 -1936 c-16 -57 -176 -586 -221 -733 -29 -96
-117 -386 -195 -645 -272 -902 -290 -960 -300 -982 l-10 -23 -2024 0 c-1920 0
-2025 1 -2030 18 -3 9 -46 161 -96 337 -50 176 -122 428 -160 560 -182 632
-420 1469 -420 1477 0 4 1229 8 2731 8 2596 0 2730 -1 2725 -17z"/>
</g>
</svg>
