<?xml version="1.0" standalone="no"?>
<!DOCTYPE svg PUBLIC "-//W3C//DTD SVG 20010904//EN"
 "http://www.w3.org/TR/2001/REC-SVG-20010904/DTD/svg10.dtd">
<svg version="1.0" xmlns="http://www.w3.org/2000/svg"
 width="220.000000pt" height="229.000000pt" viewBox="0 0 220.000000 229.000000"
 preserveAspectRatio="xMidYMid meet">

<g transform="translate(0.000000,229.000000) scale(0.100000,-0.100000)"
fill="#000000" stroke="none">
<path d="M1037 2180 c-129 -32 -241 -153 -316 -340 -64 -161 -103 -391 -74
-437 16 -26 23 -28 47 -10 13 10 20 36 27 98 13 118 27 182 60 272 57 158 145
279 231 320 20 9 60 17 90 17 102 0 197 -87 279 -255 56 -117 87 -228 96 -343
7 -90 26 -131 57 -119 28 11 35 48 25 138 -33 292 -176 559 -343 638 -53 24
-128 33 -179 21z"/>
<path d="M207 938 c-100 -606 -125 -773 -115 -780 15 -9 2013 -6 2023 4 5 5
-212 1369 -242 1521 l-5 27 -148 0 -148 0 10 -40 10 -40 104 0 c57 0 104 -3
104 -7 0 -5 20 -132 45 -283 93 -564 175 -1072 175 -1086 0 -12 -132 -14 -923
-14 l-924 0 116 695 116 695 102 0 103 0 6 28 c3 15 7 33 10 40 2 9 -31 12
-144 12 l-148 0 -127 -772z"/>
<path d="M807 1703 c-3 -5 -8 -23 -12 -40 l-7 -33 311 0 c337 0 323 -3 301 54
l-10 26 -289 0 c-159 0 -292 -3 -294 -7z"/>
</g>
</svg>
