<?xml version="1.0" standalone="no"?>
<!DOCTYPE svg PUBLIC "-//W3C//DTD SVG 20010904//EN"
 "http://www.w3.org/TR/2001/REC-SVG-20010904/DTD/svg10.dtd">
<svg version="1.0" xmlns="http://www.w3.org/2000/svg"
 width="320.000000pt" height="85.000000pt" viewBox="0 0 320.000000 85.000000"
 preserveAspectRatio="xMidYMid meet">

<g transform="translate(0.000000,85.000000) scale(0.100000,-0.100000)"
fill="#feb402" stroke="none">
<path d="M285 674 c-66 -41 -126 -78 -134 -83 -10 -6 4 -27 59 -85 l73 -76
-49 -43 c-27 -23 -64 -56 -83 -73 l-34 -30 145 -92 c80 -51 147 -92 151 -92 7
0 67 82 67 92 0 4 -34 31 -76 59 l-77 51 67 62 67 61 -60 65 c-34 36 -61 67
-61 70 0 3 30 22 65 44 36 21 68 43 71 48 7 10 -47 90 -62 94 -5 2 -63 -31
-129 -72z"/>
<path d="M817 462 c-104 -345 -100 -314 -33 -333 l56 -16 26 86 c14 47 34 117
44 154 10 38 20 71 23 73 3 3 33 -47 68 -110 35 -64 68 -114 74 -112 5 1 36
53 70 114 33 61 62 112 65 112 3 0 25 -72 50 -159 l44 -159 51 15 c27 8 53 18
58 22 7 7 -149 548 -164 564 -6 8 -38 -43 -144 -227 -27 -48 -28 -49 -44 -29
-9 11 -47 74 -85 141 -38 67 -72 122 -75 122 -3 0 -41 -116 -84 -258z"/>
<path d="M1606 448 c-81 -149 -143 -274 -139 -278 26 -23 94 -53 102 -44 4 5
48 86 95 179 48 94 89 171 91 173 3 4 115 -201 115 -210 0 -3 -21 -9 -47 -12
-27 -4 -60 -9 -75 -12 l-28 -5 26 -52 c15 -29 27 -53 29 -55 3 -4 260 30 271
37 11 6 -273 550 -287 551 -4 0 -73 -122 -153 -272z"/>
<path d="M2158 703 l-28 -4 0 -285 0 -284 60 0 60 0 0 234 0 235 28 3 c59 7
112 -34 112 -87 0 -30 -30 -75 -63 -91 -17 -9 -33 -17 -34 -19 -2 -1 67 -135
146 -282 7 -14 111 34 111 52 0 5 -23 50 -50 99 -28 49 -50 91 -50 93 0 3 11
18 25 35 80 95 41 243 -77 293 -36 14 -168 19 -240 8z"/>
<path d="M2601 656 c-6 -25 -11 -49 -11 -55 0 -6 31 -10 78 -9 l77 1 3 -231 2
-232 60 0 60 0 0 230 0 230 69 0 c39 0 72 3 74 8 3 4 8 28 11 55 l7 47 -209 0
-210 0 -11 -44z"/>
<path d="M574 482 c-61 -57 -61 -59 -19 -102 22 -22 43 -40 49 -40 5 0 26 19
47 42 l37 42 -22 27 c-11 14 -30 33 -42 42 -20 15 -23 14 -50 -11z"/>
</g>
</svg>
