<?xml version="1.0" standalone="no"?>
<!DOCTYPE svg PUBLIC "-//W3C//DTD SVG 20010904//EN"
 "http://www.w3.org/TR/2001/REC-SVG-20010904/DTD/svg10.dtd">
<svg version="1.0" xmlns="http://www.w3.org/2000/svg"
 width="259.000000pt" height="194.000000pt" viewBox="0 0 259.000000 180.000000"
 preserveAspectRatio="xMidYMid meet">

<g transform="translate(0.000000,194.000000) scale(0.100000,-0.100000)"
fill="#ffffff" stroke="none">
<path d="M583 1645 l10 -45 47 0 47 0 22 -77 c12 -43 48 -197 82 -343 33 -146
64 -282 68 -302 8 -35 7 -38 -26 -58 -85 -50 -79 -176 10 -230 31 -19 54 -20
575 -20 l542 0 0 45 0 45 -526 0 c-343 0 -532 4 -545 10 -22 12 -25 52 -6 68
7 6 249 39 537 73 289 34 526 63 526 63 2 1 44 614 44 639 0 16 -22 17 -320
17 -214 0 -320 3 -320 10 0 6 7 22 16 36 12 17 14 28 7 35 -7 7 -19 -4 -37
-35 l-27 -46 -218 0 -219 0 -19 78 -19 77 -131 3 -130 3 10 -46z m224 -82 c18
-76 20 -78 51 -81 31 -3 32 -5 32 -48 l0 -44 -45 0 c-44 0 -44 0 -55 43 -6 23
-20 74 -31 113 -24 89 -24 94 5 94 21 0 26 -8 43 -77z m203 -128 l0 -45 -50 0
-50 0 0 45 0 45 50 0 50 0 0 -45z m125 0 l0 -40 -52 -3 -53 -3 0 46 0 46 53
-3 52 -3 0 -40z m125 30 c0 -9 -7 -29 -15 -45 -13 -26 -21 -30 -55 -30 l-40 0
0 45 0 45 55 0 c43 0 55 -3 55 -15z m120 -30 l0 -45 -55 0 c-62 0 -65 6 -34
56 17 28 27 34 55 34 34 0 34 0 34 -45z m120 0 l0 -45 -55 0 -55 0 0 45 0 45
55 0 55 0 0 -45z m120 -1 l0 -45 -52 3 c-50 3 -53 5 -56 31 -6 49 3 57 58 57
l50 0 0 -46z m120 1 l0 -45 -50 0 -50 0 0 45 0 45 50 0 50 0 0 -45z m120 0 l0
-45 -50 0 -50 0 0 45 0 45 50 0 50 0 0 -45z m70 0 c0 -41 -2 -45 -25 -45 -23
0 -25 4 -25 45 0 41 2 45 25 45 23 0 25 -4 25 -45z m-1040 -111 l0 -55 -32 3
c-29 3 -33 7 -44 50 -6 26 -9 49 -6 52 3 4 23 6 44 6 l38 0 0 -56z m120 1 l0
-55 -50 0 -50 0 0 55 0 55 50 0 50 0 0 -55z m128 -2 l3 -53 -55 0 -56 0 0 56
0 55 53 -3 52 -3 3 -52z m72 46 c0 -11 -49 -99 -56 -99 -2 0 -4 25 -4 55 0 54
0 55 30 55 17 0 30 -5 30 -11z m50 -44 l0 -55 -35 0 c-19 0 -35 2 -35 5 0 7
61 105 66 105 2 0 4 -25 4 -55z m120 0 l0 -55 -55 0 -55 0 0 55 0 55 55 0 55
0 0 -55z m120 0 l0 -55 -55 0 -55 0 0 48 c0 27 3 52 7 55 3 4 28 7 55 7 l48 0
0 -55z m120 -1 l0 -55 -52 3 -53 3 -3 39 c-5 59 1 66 58 66 l50 0 0 -56z m120
1 l0 -55 -50 0 -50 0 0 55 0 55 50 0 50 0 0 -55z m120 0 l0 -55 -50 0 -50 0 0
55 0 55 50 0 50 0 0 -55z m64 38 c-1 -7 -2 -31 -2 -53 -2 -33 -6 -40 -22 -40
-18 0 -20 7 -20 56 0 52 1 55 23 52 12 -2 22 -9 21 -15z m-1034 -158 c0 -47
-3 -55 -19 -55 -12 0 -20 9 -24 29 -3 16 -9 40 -13 55 -6 24 -4 26 25 26 31 0
31 0 31 -55z m120 0 l0 -55 -50 0 -50 0 0 55 0 55 50 0 50 0 0 -55z m123 49
c4 -4 -5 -29 -20 -55 -22 -41 -31 -49 -55 -49 -27 0 -28 1 -28 55 l0 55 48 0
c27 0 52 -3 55 -6z m125 -51 l3 -53 -55 0 c-56 0 -56 0 -56 30 0 17 7 42 16
56 14 20 24 24 53 22 36 -3 36 -3 39 -55z m120 0 l3 -53 -55 0 -56 0 0 48 c0
27 3 52 7 56 4 4 28 6 53 4 l45 -3 3 -52z m122 2 l0 -55 -55 0 -55 0 0 48 c0
27 3 52 7 55 3 4 28 7 55 7 l48 0 0 -55z m120 -1 l0 -55 -52 3 -53 3 -3 39
c-5 59 1 66 58 66 l50 0 0 -56z m120 1 l0 -55 -50 0 -50 0 0 55 0 55 50 0 50
0 0 -55z m120 0 l0 -55 -50 0 -50 0 0 55 0 55 50 0 50 0 0 -55z m54 46 c11
-17 -6 -101 -20 -101 -10 0 -14 15 -14 55 0 41 4 55 14 55 8 0 17 -4 20 -9z
m-774 -91 c0 -5 -4 -10 -10 -10 -5 0 -10 5 -10 10 0 6 5 10 10 10 6 0 10 -4
10 -10z m-251 -77 l-1 -58 -15 49 c-12 41 -13 50 -1 57 7 5 14 9 16 9 1 0 2
-26 1 -57z m971 2 l0 -55 -50 0 -50 0 0 49 0 50 48 4 c26 2 48 4 50 5 1 1 2
-23 2 -53z m-850 -5 l0 -50 -50 0 -50 0 0 50 0 50 50 0 50 0 0 -50z m60 43 c0
-5 -9 -19 -20 -33 l-20 -25 0 33 c0 25 4 32 20 32 11 0 20 -3 20 -7z m70 -43
l0 -50 -45 0 c-25 0 -45 3 -45 6 0 3 12 25 26 50 16 28 33 44 45 44 16 0 19
-7 19 -50z m120 0 l0 -50 -55 0 -55 0 0 50 0 50 55 0 55 0 0 -50z m120 0 l0
-50 -55 0 -55 0 0 50 0 50 55 0 55 0 0 -50z m120 0 l0 -50 -55 0 -55 0 0 50 0
50 55 0 55 0 0 -50z m120 0 l0 -50 -55 0 -55 0 0 50 0 50 55 0 55 0 0 -50z
m120 0 l0 -50 -50 0 -50 0 0 50 0 50 50 0 50 0 0 -50z m170 23 c0 -38 -10 -73
-21 -73 -5 0 -9 23 -9 50 0 38 4 50 15 50 10 0 15 -10 15 -27z m-937 -143
c-38 -68 -63 -68 -63 0 l0 50 46 0 45 0 -28 -50z m167 0 l0 -50 -55 0 -55 0 0
50 0 50 55 0 55 0 0 -50z m120 0 l0 -50 -55 0 -55 0 0 50 0 50 55 0 55 0 0
-50z m120 0 l0 -50 -55 0 -55 0 0 50 0 50 55 0 55 0 0 -50z m120 0 l0 -50 -55
0 -55 0 0 50 0 50 55 0 55 0 0 -50z m120 0 l0 -50 -53 0 -53 0 -3 50 -2 50 56
0 55 0 0 -50z m120 0 l0 -50 -50 0 -50 0 0 50 0 50 50 0 50 0 0 -50z m120 6
c0 -41 -2 -44 -31 -50 -65 -13 -69 -11 -69 44 l0 50 50 0 50 0 0 -44z m40 5
c0 -22 -4 -43 -10 -46 -6 -4 -10 12 -10 39 0 25 5 46 10 46 6 0 10 -18 10 -39z
m-890 -31 c0 -20 -5 -30 -15 -30 -18 0 -18 2 -3 35 15 32 18 32 18 -5z m0 -84
c0 -36 -12 -46 -56 -46 -28 0 -31 20 -8 55 10 15 26 25 40 25 21 0 24 -5 24
-34z m130 10 c0 -30 -3 -32 -62 -40 l-48 -7 0 35 0 36 55 0 c52 0 55 -1 55
-24z m120 5 c0 -23 -19 -31 -71 -31 -35 0 -39 3 -39 25 0 24 3 25 55 25 47 0
55 -3 55 -19z m120 4 c0 -8 -8 -15 -17 -15 -10 0 -35 -3 -55 -6 -34 -6 -38 -4
-38 15 0 19 6 21 55 21 42 0 55 -3 55 -15z m115 5 c-3 -5 -28 -10 -56 -10 -27
0 -49 5 -49 10 0 6 25 10 56 10 34 0 53 -4 49 -10z m63 3 c-10 -2 -26 -2 -35
0 -10 3 -2 5 17 5 19 0 27 -2 18 -5z"/>
<path d="M964 457 c-30 -27 -37 -41 -38 -74 -2 -77 44 -123 123 -123 113 0
152 163 51 215 -49 25 -95 19 -136 -18z m116 -35 c43 -34 17 -112 -37 -112
-44 0 -79 60 -55 96 9 13 43 33 58 34 7 0 22 -8 34 -18z"/>
<path d="M1017 387 c-8 -21 8 -39 29 -35 27 5 25 42 -2 46 -12 2 -24 -3 -27
-11z"/>
<path d="M1709 475 c-64 -34 -73 -132 -19 -187 24 -23 37 -28 80 -28 43 0 56
5 80 29 37 36 46 72 31 122 -21 68 -106 100 -172 64z m99 -51 c34 -23 27 -83
-10 -104 -25 -13 -31 -13 -55 0 -37 20 -43 70 -14 99 25 25 49 27 79 5z"/>
<path d="M1744 385 c-4 -9 -2 -21 4 -27 16 -16 47 -5 47 17 0 26 -42 34 -51
10z"/>
<path d="M1960 105 l0 -45 285 0 285 0 0 45 0 45 -285 0 -285 0 0 -45z m105
-3 c-5 -39 -6 -40 -14 -13 -8 29 -38 36 -51 11 -5 -9 -7 -20 -5 -24 3 -3 2 -4
-2 -1 -3 3 -7 16 -9 29 -2 22 1 24 41 24 41 0 43 -1 40 -26z m95 18 c23 12 40
6 40 -15 0 -23 -22 -29 -36 -11 -9 13 -13 14 -17 4 -4 -10 -8 -10 -16 2 -9 13
-11 13 -11 -2 0 -10 -4 -18 -9 -18 -15 0 -23 19 -17 36 4 12 10 13 26 4 14 -8
26 -8 40 0z"/>
<path d="M2170 105 c0 -8 4 -15 8 -15 5 0 9 7 9 15 0 8 -4 15 -9 15 -4 0 -8
-7 -8 -15z"/>
</g>
</svg>
