<?xml version="1.0" standalone="no"?>
<!DOCTYPE svg PUBLIC "-//W3C//DTD SVG 20010904//EN"
 "http://www.w3.org/TR/2001/REC-SVG-20010904/DTD/svg10.dtd">
<svg version="1.0" xmlns="http://www.w3.org/2000/svg"
 width="400.000000pt" height="200.000000pt" viewBox="0 0 400.000000 200.000000"
 preserveAspectRatio="xMidYMid meet">

<g transform="translate(0.000000,200.000000) scale(0.100000,-0.100000)"
fill="#fffffg" stroke="none">
<path d="M3102 1407 c3 -390 2 -382 86 -419 37 -17 58 -20 114 -15 37 3 73 9
78 12 6 3 10 28 10 56 l0 49 -53 0 c-29 0 -58 5 -65 12 -8 8 -12 67 -12 199
l0 186 41 6 c51 7 78 32 86 80 l6 37 -65 0 -65 0 -5 50 c-7 72 -27 90 -100 90
l-59 0 3 -343z"/>
<path d="M1400 1593 c-88 -46 -90 -53 -90 -350 l0 -253 75 0 75 0 0 244 c0
242 0 245 22 260 32 23 90 20 122 -5 l26 -20 0 -240 0 -239 74 0 75 0 3 241
c3 239 3 241 27 260 34 28 96 25 126 -6 25 -24 25 -25 25 -222 0 -164 3 -202
16 -221 20 -29 66 -52 104 -52 l30 0 0 245 c0 187 -3 254 -14 279 -16 38 -64
78 -115 95 -47 15 -188 13 -236 -4 -34 -12 -45 -12 -83 0 -24 9 -79 15 -126
15 -70 0 -90 -4 -136 -27z"/>
<path d="M2320 1611 c-84 -27 -134 -81 -146 -158 l-7 -43 70 0 69 0 12 34 c23
63 130 86 197 42 28 -18 33 -57 11 -75 -8 -7 -71 -29 -140 -50 -140 -43 -185
-68 -215 -122 -80 -142 69 -284 279 -266 86 7 145 33 186 79 50 57 59 96 59
263 0 142 -2 153 -25 200 -39 74 -94 99 -225 102 -55 1 -111 -1 -125 -6z m230
-366 c0 -100 -49 -155 -137 -155 -44 0 -58 5 -78 25 -56 55 -23 106 96 146
117 39 119 39 119 -16z"/>
<path d="M2833 1604 c-66 -33 -68 -40 -71 -341 l-3 -273 80 0 81 0 0 245 0
245 25 16 c19 12 37 15 70 11 l45 -7 0 54 c0 47 -3 54 -22 60 -46 12 -173 6
-205 -10z"/>
</g>
</svg>
